<svg xmlns="http://www.w3.org/2000/svg" fill-rule="evenodd" stroke-linejoin="round" stroke-miterlimit="2" clip-rule="evenodd" viewBox="0 0 32 33"><path fill="none" d="M.342.937h31.424v32H.342z"/><path fill="#6A983C" d="m15.83 6.768-3.927-2.09a.413.413 0 0 0-.392 0l-9.647 5.15a.417.417 0 0 0-.024.722l3.68 2.285-3.664 2.06a.416.416 0 0 0-.01.721l4.075 2.441v6.175c0 .153.084.293.218.366l9.502 5.172a.414.414 0 0 0 .195.052h.012a.416.416 0 0 0 .186-.046l10.353-5.171a.418.418 0 0 0 .231-.373v-6.47l3.654-2.161a.416.416 0 0 0-.016-.726l-4.045-2.164 3.783-2.153a.414.414 0 0 0 .012-.717l-9.354-5.728a.42.42 0 0 0-.434-.001L15.83 6.768Zm9.954 11.487-5.308 3.14a.416.416 0 0 1-.429-.004l-4.196-2.57-3.916 2.564a.417.417 0 0 1-.442.008l-4.739-2.837v5.428l8.673 4.72v-8.289a.416.416 0 0 1 .833 0v8.316l9.524-4.757v-5.719ZM25.36 13.2l-8.707 5.135 3.616 2.215 5.52-3.265c.024-1.149.218-1.578.413-1.501.165-.066.33.233.391 1.025l2.618-1.549-3.85-2.06Zm-10.31 5.15-8.714-5.018L2.89 15.27l8.807 5.274 3.351-2.194Zm-7.884-5.502 8.676 4.997 8.68-5.118-8.675-4.997-8.68 5.118Zm7.826-5.582-8.18 4.824-.468.275-3.45-2.142 8.814-4.705 3.284 1.748Zm1.672-.028 3.77-2.281 8.536 5.226-3.619 2.059-8.687-5.004Z"/></svg>
